<svg id="visual" viewBox="0 0 900 600" width="900" height="600" xmlns="http://www.w3.org/2000/svg" xmlns:xlink="http://www.w3.org/1999/xlink" version="1.1"><g fill="#858584"><circle r="14" cx="423" cy="530"></circle><circle r="14" cx="795" cy="349"></circle><circle r="13" cx="196" cy="427"></circle><circle r="13" cx="585" cy="357"></circle><circle r="13" cx="417" cy="409"></circle><circle r="13" cx="197" cy="276"></circle><circle r="13" cx="762" cy="462"></circle><circle r="13" cx="764" cy="68"></circle><circle r="13" cx="613" cy="416"></circle><circle r="13" cx="377" cy="348"></circle><circle r="13" cx="610" cy="114"></circle><circle r="13" cx="761" cy="370"></circle><circle r="13" cx="704" cy="189"></circle><circle r="13" cx="707" cy="567"></circle><circle r="13" cx="391" cy="20"></circle><circle r="13" cx="54" cy="364"></circle><circle r="13" cx="530" cy="498"></circle><circle r="13" cx="603" cy="18"></circle><circle r="13" cx="367" cy="380"></circle><circle r="13" cx="883" cy="59"></circle><circle r="13" cx="566" cy="479"></circle><circle r="13" cx="502" cy="111"></circle><circle r="13" cx="849" cy="535"></circle><circle r="13" cx="46" cy="479"></circle><circle r="13" cx="639" cy="559"></circle><circle r="13" cx="97" cy="75"></circle><circle r="13" cx="297" cy="238"></circle><circle r="13" cx="250" cy="472"></circle><circle r="13" cx="883" cy="219"></circle><circle r="13" cx="460" cy="218"></circle><circle r="13" cx="122" cy="595"></circle><circle r="13" cx="453" cy="159"></circle><circle r="13" cx="661" cy="123"></circle><circle r="13" cx="692" cy="47"></circle><circle r="13" cx="675" cy="167"></circle><circle r="13" cx="9" cy="426"></circle><circle r="13" cx="684" cy="96"></circle><circle r="13" cx="834" cy="352"></circle><circle r="13" cx="130" cy="325"></circle><circle r="13" cx="882" cy="156"></circle><circle r="13" cx="61" cy="561"></circle><circle r="13" cx="207" cy="173"></circle><circle r="13" cx="431" cy="244"></circle><circle r="13" cx="350" cy="142"></circle><circle r="13" cx="287" cy="526"></circle><circle r="13" cx="766" cy="528"></circle><circle r="13" cx="726" cy="100"></circle><circle r="13" cx="724" cy="343"></circle><circle r="13" cx="829" cy="433"></circle><circle r="13" cx="809" cy="226"></circle><circle r="13" cx="662" cy="332"></circle><circle r="13" cx="348" cy="115"></circle><circle r="13" cx="402" cy="52"></circle><circle r="13" cx="569" cy="110"></circle><circle r="13" cx="799" cy="100"></circle><circle r="13" cx="203" cy="111"></circle><circle r="13" cx="563" cy="31"></circle><circle r="13" cx="728" cy="137"></circle><circle r="13" cx="398" cy="473"></circle><circle r="13" cx="577" cy="55"></circle><circle r="13" cx="100" cy="293"></circle><circle r="13" cx="300" cy="47"></circle><circle r="13" cx="480" cy="545"></circle><circle r="13" cx="736" cy="164"></circle><circle r="13" cx="39" cy="256"></circle><circle r="13" cx="807" cy="463"></circle><circle r="13" cx="212" cy="403"></circle><circle r="13" cx="173" cy="53"></circle><circle r="13" cx="737" cy="477"></circle><circle r="13" cx="21" cy="575"></circle><circle r="13" cx="685" cy="529"></circle><circle r="13" cx="447" cy="375"></circle><circle r="13" cx="876" cy="500"></circle><circle r="13" cx="425" cy="184"></circle><circle r="13" cx="472" cy="17"></circle><circle r="13" cx="367" cy="574"></circle><circle r="13" cx="452" cy="279"></circle><circle r="13" cx="440" cy="19"></circle><circle r="13" cx="201" cy="326"></circle><circle r="13" cx="580" cy="320"></circle><circle r="13" cx="668" cy="452"></circle><circle r="13" cx="145" cy="291"></circle><circle r="13" cx="234" cy="383"></circle><circle r="13" cx="746" cy="206"></circle><circle r="13" cx="149" cy="232"></circle><circle r="13" cx="249" cy="541"></circle><circle r="13" cx="181" cy="242"></circle><circle r="13" cx="890" cy="350"></circle><circle r="13" cx="718" cy="424"></circle><circle r="13" cx="641" cy="425"></circle><circle r="13" cx="598" cy="569"></circle><circle r="13" cx="886" cy="13"></circle><circle r="13" cx="234" cy="97"></circle><circle r="13" cx="212" cy="145"></circle><circle r="13" cx="884" cy="452"></circle><circle r="13" cx="761" cy="335"></circle><circle r="13" cx="308" cy="361"></circle><circle r="13" cx="568" cy="184"></circle><circle r="13" cx="104" cy="427"></circle><circle r="13" cx="270" cy="504"></circle><circle r="13" cx="790" cy="290"></circle><circle r="13" cx="608" cy="494"></circle><circle r="13" cx="320" cy="295"></circle><circle r="13" cx="627" cy="228"></circle><circle r="13" cx="374" cy="45"></circle><circle r="13" cx="778" cy="572"></circle><circle r="13" cx="282" cy="274"></circle><circle r="13" cx="109" cy="370"></circle><circle r="13" cx="205" cy="365"></circle><circle r="13" cx="29" cy="148"></circle><circle r="13" cx="735" cy="552"></circle><circle r="13" cx="622" cy="158"></circle><circle r="13" cx="504" cy="222"></circle><circle r="13" cx="214" cy="495"></circle><circle r="13" cx="309" cy="496"></circle><circle r="13" cx="294" cy="412"></circle><circle r="13" cx="831" cy="260"></circle><circle r="13" cx="80" cy="110"></circle><circle r="13" cx="669" cy="25"></circle><circle r="13" cx="178" cy="123"></circle><circle r="13" cx="747" cy="424"></circle><circle r="13" cx="468" cy="124"></circle><circle r="13" cx="551" cy="456"></circle><circle r="13" cx="490" cy="505"></circle><circle r="13" cx="139" cy="355"></circle><circle r="13" cx="311" cy="441"></circle><circle r="13" cx="115" cy="536"></circle><circle r="13" cx="361" cy="512"></circle><circle r="13" cx="249" cy="581"></circle><circle r="13" cx="4" cy="179"></circle><circle r="13" cx="224" cy="345"></circle><circle r="13" cx="219" cy="566"></circle><circle r="13" cx="164" cy="556"></circle><circle r="13" cx="109" cy="154"></circle><circle r="13" cx="24" cy="277"></circle><circle r="13" cx="874" cy="120"></circle><circle r="13" cx="313" cy="161"></circle><circle r="13" cx="522" cy="284"></circle><circle r="13" cx="850" cy="159"></circle><circle r="13" cx="366" cy="255"></circle><circle r="13" cx="136" cy="393"></circle><circle r="13" cx="64" cy="237"></circle></g></svg>